# xmcd
#
# Track frame offsets: 
#        150
#        12550
#        32340
#        56735
#        73742
#        100065
#        113932
#        128122
#        142517
#        159910
#        185412
#        201337
#
# Disc length: 2916 seconds
#
# Revision: 4
# Processed by: cddbd v1.5.2PL0 Copyright (c) Steve Scherf et al.
# Submitted via: ExactAudioCopy v0.95b4
#
DISCID=9e0b620c
DTITLE=Francis Cabrel - Algo más de amor
DYEAR=1998
DGENRE=Folk/Rock
TTITLE0=La quiero a morir
TTITLE1=La chica que me acompaña
TTITLE2=Animal
TTITLE3=Cosa de equilibrio
TTITLE4=Está escrito
TTITLE5=Los atajos
TTITLE6=Todo aquello que escribí
TTITLE7=Si algún día la ves
TTITLE8=Algo más de amor
TTITLE9=La corrida
TTITLE10=Octubre
TTITLE11=Vengo a ofrecer mi corazón
EXTD=
EXTT0=
EXTT1=
EXTT2=
EXTT3=
EXTT4=
EXTT5=
EXTT6=
EXTT7=
EXTT8=
EXTT9=
EXTT10=
EXTT11=
PLAYORDER=
